<?xml version="1.0" encoding="UTF-8"?>
<svg xmlns="http://www.w3.org/2000/svg" version="1.1" width="400" height="400" viewBox="0 0 400 400"><rect x="0" y="0" width="400" height="400" fill="#fefefe"/><g transform="scale(10.811)"><g transform="translate(4,4)"><path fill-rule="evenodd" d="M9 0L9 1L8 1L8 2L9 2L9 3L8 3L8 4L10 4L10 7L11 7L11 4L12 4L12 5L13 5L13 6L12 6L12 9L13 9L13 8L14 8L14 9L15 9L15 8L17 8L17 9L16 9L16 10L15 10L15 11L14 11L14 12L17 12L17 13L16 13L16 14L15 14L15 13L12 13L12 11L13 11L13 10L11 10L11 11L10 11L10 9L11 9L11 8L6 8L6 9L5 9L5 8L0 8L0 9L2 9L2 10L0 10L0 12L1 12L1 13L0 13L0 15L3 15L3 14L5 14L5 15L4 15L4 16L2 16L2 17L0 17L0 21L1 21L1 18L2 18L2 17L3 17L3 19L4 19L4 20L2 20L2 21L5 21L5 18L6 18L6 19L7 19L7 20L6 20L6 21L7 21L7 20L8 20L8 23L9 23L9 21L10 21L10 23L11 23L11 21L12 21L12 22L13 22L13 23L12 23L12 25L13 25L13 24L14 24L14 25L15 25L15 24L14 24L14 23L16 23L16 24L17 24L17 25L18 25L18 24L20 24L20 25L19 25L19 26L18 26L18 28L17 28L17 27L16 27L16 26L15 26L15 27L14 27L14 28L15 28L15 29L18 29L18 28L19 28L19 29L20 29L20 28L22 28L22 29L27 29L27 28L28 28L28 26L29 26L29 25L28 25L28 24L29 24L29 23L28 23L28 24L26 24L26 25L25 25L25 23L27 23L27 22L29 22L29 20L28 20L28 19L27 19L27 16L28 16L28 15L27 15L27 14L25 14L25 13L27 13L27 12L28 12L28 11L27 11L27 12L26 12L26 11L25 11L25 13L24 13L24 14L23 14L23 13L21 13L21 14L20 14L20 12L24 12L24 11L22 11L22 10L25 10L25 9L26 9L26 8L25 8L25 9L24 9L24 8L23 8L23 9L22 9L22 8L21 8L21 9L18 9L18 8L17 8L17 6L18 6L18 7L19 7L19 8L20 8L20 7L21 7L21 4L20 4L20 3L21 3L21 0L15 0L15 1L20 1L20 2L19 2L19 3L17 3L17 2L16 2L16 3L17 3L17 6L16 6L16 4L12 4L12 2L13 2L13 1L11 1L11 2L10 2L10 0ZM14 2L14 3L15 3L15 2ZM10 3L10 4L11 4L11 3ZM8 5L8 7L9 7L9 5ZM18 5L18 6L19 6L19 7L20 7L20 5ZM13 6L13 7L14 7L14 8L15 8L15 7L16 7L16 6L15 6L15 7L14 7L14 6ZM27 8L27 9L28 9L28 10L29 10L29 9L28 9L28 8ZM4 9L4 12L5 12L5 13L6 13L6 14L8 14L8 16L7 16L7 15L6 15L6 16L7 16L7 17L6 17L6 18L7 18L7 19L8 19L8 20L9 20L9 19L10 19L10 20L11 20L11 19L10 19L10 18L8 18L8 16L9 16L9 17L11 17L11 18L13 18L13 19L12 19L12 21L15 21L15 22L16 22L16 23L17 23L17 24L18 24L18 23L19 23L19 22L20 22L20 21L19 21L19 22L18 22L18 23L17 23L17 22L16 22L16 21L17 21L17 20L18 20L18 19L21 19L21 20L22 20L22 18L18 18L18 17L23 17L23 16L22 16L22 14L21 14L21 16L18 16L18 15L20 15L20 14L18 14L18 15L17 15L17 14L16 14L16 15L17 15L17 16L18 16L18 17L17 17L17 18L16 18L16 17L14 17L14 16L15 16L15 15L14 15L14 16L13 16L13 17L12 17L12 15L13 15L13 14L12 14L12 13L11 13L11 12L10 12L10 13L9 13L9 11L8 11L8 12L7 12L7 11L5 11L5 9ZM6 9L6 10L7 10L7 9ZM2 10L2 11L3 11L3 10ZM17 10L17 12L18 12L18 13L19 13L19 11L21 11L21 10L19 10L19 11L18 11L18 10ZM2 12L2 14L3 14L3 12ZM6 12L6 13L7 13L7 12ZM10 13L10 15L9 15L9 16L11 16L11 13ZM28 13L28 14L29 14L29 13ZM24 14L24 15L25 15L25 16L24 16L24 17L25 17L25 18L24 18L24 19L25 19L25 21L26 21L26 20L27 20L27 19L26 19L26 17L25 17L25 16L27 16L27 15L25 15L25 14ZM28 17L28 18L29 18L29 17ZM15 18L15 19L14 19L14 20L16 20L16 18ZM21 21L21 24L24 24L24 21ZM22 22L22 23L23 23L23 22ZM8 24L8 29L10 29L10 27L11 27L11 29L12 29L12 27L13 27L13 26L11 26L11 24ZM9 25L9 27L10 27L10 25ZM20 25L20 26L19 26L19 28L20 28L20 26L23 26L23 25ZM24 25L24 26L25 26L25 25ZM24 27L24 28L25 28L25 27ZM26 27L26 28L27 28L27 27ZM0 0L0 7L7 7L7 0ZM1 1L1 6L6 6L6 1ZM2 2L2 5L5 5L5 2ZM22 0L22 7L29 7L29 0ZM23 1L23 6L28 6L28 1ZM24 2L24 5L27 5L27 2ZM0 22L0 29L7 29L7 22ZM1 23L1 28L6 28L6 23ZM2 24L2 27L5 27L5 24Z" fill="#000000"/></g></g></svg>
